# xmcd
#
# Track frame offsets: 
#        150
#        14378
#        26505
#        37622
#        47592
#        58741
#        71224
#        87730
#        100393
#        114244
#        124223
#        138449
#        152720
#        164485
#        174852
#        186285
#        198820
#        210617
#        222586
#        236431
#        249573
#        259779
#        271697
#        284140
#
# Disc length: 4010 seconds
#
# Revision: 0
# Processed by: cddbd v1.5.2PL0 Copyright (c) Steve Scherf et al.
# Submitted via: ExactAudioCopy v1.0b3
#
DISCID=5f0fa818
DTITLE=Various Artist - Satisfaction Guaranteed!
DYEAR=2014
DGENRE=Motown - Classic
TTITLE0=Bobby Taylor and The Vancouvers - Satisfaction Is Guaranteed
TTITLE1=Marv Johnson - Safety Zone
TTITLE2=Johnny Bristol - Tell Me How To Forget A True Love
TTITLE3=The Hit Pack - Show Me You Can Dance
TTITLE4=Edwin Starr - The Sound Of Love
TTITLE5=The Spinners - Hold On To Me (A Little Longer)
TTITLE6=Smokey Robinson and The Miracles - Baby You Got The Key
TTITLE7=Chuck Jackson - Where Did You Go
TTITLE8=Frank Wilson - Together 'Til The End Of Time
TTITLE9=Ivy Jo - Just Your Love
TTITLE10=The Fantastic Four - I Wanna Say I Love You
TTITLE11=Jimmy Ruffin - (Loneliness Made Me Realize) It's You That I N
TTITLE11=eed
TTITLE12=Freddie Gorman - I'm Gonna Make It To The Top
TTITLE13=Bruce Channel - I Wanted To Cry
TTITLE14=Marvin Gaye - Mojo Hannah
TTITLE15=Shorty Long - Headin' North
TTITLE16=The Headliners - Only On The Weekend
TTITLE17=The Temptations - He Who Picks A Rose (version 1)
TTITLE18=Gino Parks - Taking Candy From A Baby
TTITLE19=Jr Walker and The All Stars - My Girl Annie
TTITLE20=The Serenaders - Say, Say, Baby
TTITLE21=The Contours - Claudia
TTITLE22=The Quails - This Ole Heart
TTITLE23=Four Tops - The Night We Called It A Day
EXTD=
EXTT0=
EXTT1=
EXTT2=
EXTT3=
EXTT4=
EXTT5=
EXTT6=
EXTT7=
EXTT8=
EXTT9=
EXTT10=
EXTT11=
EXTT12=
EXTT13=
EXTT14=
EXTT15=
EXTT16=
EXTT17=
EXTT18=
EXTT19=
EXTT20=
EXTT21=
EXTT22=
EXTT23=
PLAYORDER=
